<svg viewBox="0 0 590.32 423.12" xmlns="http://www.w3.org/2000/svg" xmlns:xlink="http://www.w3.org/1999/xlink"><linearGradient id="a" gradientUnits="userSpaceOnUse" x1="1" x2="589.32" y1="211.56" y2="211.56"><stop offset="0" stop-color="#42b883"/><stop offset="1" stop-color="#42b883" stop-opacity=".4"/></linearGradient><path d="m269.48 401.93c26.68-53.79 53.37-107.57 80.05-161.36 2.66-5.35 8.11-8.74 14.09-8.74h94.43c5.83 0 11.18-3.23 13.91-8.38l27.81-52.65c5.53-10.47-2.06-23.07-13.91-23.07h-70.08c-12.26 0-19.8-13.4-13.45-23.88l16.72-27.6c2.85-4.7 7.95-7.58 13.45-7.58h108.59c5.62 0 10.81-3 13.62-7.86l32.46-56.23c6.05-10.48-1.51-23.59-13.62-23.59h-536.54c-27.68 0-44.98 29.97-31.14 53.94 67.19 116.34 134.38 232.68 201.56 349.01 14.51 25.12 49.15 23.96 62.04-2.02z" fill="url(#a)" stroke="#42b883" stroke-miterlimit="10" stroke-width="2"/></svg>