<?xml version="1.0" encoding="UTF-8"?>
<svg id="Layer_2" data-name="Layer 2" xmlns="http://www.w3.org/2000/svg" viewBox="0 0 821.98 549.69">
  <defs>
    <style>
      .cls-1 {
        fill: #34495e;
      }

      .cls-1, .cls-2, .cls-3 {
        stroke-width: 0px;
      }

      .cls-2 {
        fill: #42b883;
      }

      .cls-3 {
        fill: #41b883;
      }
    </style>
  </defs>
  <g id="Layer_1-2" data-name="Layer 1">
    <g>
      <g>
        <polygon class="cls-1" points="658.92 225.08 405.98 225.08 405.98 314.44 603.09 314.44 658.92 225.08"/>
        <polygon class="cls-2" points="695.98 196 346.98 196 346.98 293 642.29 293 695.98 196"/>
        <polygon class="cls-1" points="791.38 29 538.44 29 538.44 118.35 735.54 118.35 791.38 29"/>
        <polygon class="cls-2" points="821.98 0 472.98 0 472.98 97 768.29 97 821.98 0"/>
      </g>
      <g>
        <path class="cls-3" d="M390.65,0l-73.29,126.94L244.07,0H0l317.36,549.69L634.72,0h-244.07Z"/>
        <path class="cls-1" d="M390.65,0l-73.29,126.94L244.07,0h-117.12l190.42,329.81L507.77,0h-117.12Z"/>
      </g>
    </g>
  </g>
</svg>